<?xml version="1.0" encoding="iso-8859-1"?>
<!-- Generator: Adobe Illustrator 21.0.0, SVG Export Plug-In . SVG Version: 6.00 Build 0)  -->
<svg version="1.1" id="Capa_1" xmlns="http://www.w3.org/2000/svg" xmlns:xlink="http://www.w3.org/1999/xlink" x="0px" y="0px"
	 viewBox="0 0 512 512" style="enable-background:new 0 0 512 512;" xml:space="preserve">
<polygon style="fill:#A5CDFF;" points="392,332.002 120,332.002 120,156.002 256,44.002 392,156.002 "/>
<path style="fill:#6F6571;" d="M304,268.002h-16v-40c0-17.648-14.352-32-32-32s-32,14.352-32,32v40h-16v-40
	c0-26.469,21.531-48,48-48s48,21.531,48,48V268.002z"/>
<path style="fill:#8CB4EB;" d="M256,75.38l136,114.525v-33.903l-136-112l-136,112v176h272v-24H184c-26.51,0-48-21.49-48-48v-68.683
	c0-9.439,4.168-18.397,11.388-24.477L256,75.38z"/>
<path style="fill:#6F6571;" d="M407.992,180.002c-1.813,0-3.648-0.617-5.148-1.883L256,54.463L109.156,178.119
	c-3.391,2.859-8.445,2.398-11.273-0.961c-2.852-3.383-2.414-8.43,0.961-11.273l152-128c2.984-2.516,7.328-2.516,10.313,0l152,128
	c3.375,2.844,3.813,7.891,0.961,11.273C412.539,179.033,410.273,180.002,407.992,180.002z"/>
<g>
	<path style="fill:#C9C6CA;" d="M408,340.002H104c-4.418,0-8-3.582-8-8l0,0c0-4.418,3.582-8,8-8h304c4.418,0,8,3.582,8,8l0,0
		C416,336.42,412.418,340.002,408,340.002z"/>
	<path style="fill:#C9C6CA;" d="M504,452.002H264v-120h-16v120H8c-4.418,0-8,3.582-8,8s3.582,8,8,8h496c4.418,0,8-3.582,8-8
		C512,455.583,508.418,452.002,504,452.002z"/>
</g>
<path style="fill:#6F6571;" d="M280,476.002h-48c-4.418,0-8-3.582-8-8v-16c0-4.418,3.582-8,8-8h48c4.418,0,8,3.582,8,8v16
	C288,472.42,284.418,476.002,280,476.002z"/>
<path style="fill:#FFE17D;" d="M256,364.002L256,364.002c-30.928,0-56-25.072-56-56v-32c0-8.837,7.163-16,16-16h80
	c8.837,0,16,7.163,16,16v32C312,338.93,286.928,364.002,256,364.002z"/>
<path style="fill:#6F6571;" d="M256,324.002c-4.422,0-8-3.578-8-8v-16c0-4.422,3.578-8,8-8s8,3.578,8,8v16
	C264,320.424,260.422,324.002,256,324.002z"/>
<path style="fill:#FFD164;" d="M272,356.002c-30.928,0-56-25.072-56-56v-40c-8.836,0-16,7.163-16,16v32c0,30.928,25.072,56,56,56
	c12.154,0,23.408-3.876,32.587-10.454C283.356,355.164,277.762,356.002,272,356.002z"/>
<circle style="fill:#4B3F4E;" cx="256" cy="300" r="8"/>
<path style="fill:#867E88;" d="M288,460.002h-64v-8c0-4.418,3.582-8,8-8h48c4.418,0,8,3.582,8,8V460.002z"/>
<g>
</g>
<g>
</g>
<g>
</g>
<g>
</g>
<g>
</g>
<g>
</g>
<g>
</g>
<g>
</g>
<g>
</g>
<g>
</g>
<g>
</g>
<g>
</g>
<g>
</g>
<g>
</g>
<g>
</g>
</svg>
