<?xml version="1.0" encoding="iso-8859-1"?>
<!-- Generator: Adobe Illustrator 21.0.0, SVG Export Plug-In . SVG Version: 6.00 Build 0)  -->
<svg version="1.1" id="Capa_1" xmlns="http://www.w3.org/2000/svg" xmlns:xlink="http://www.w3.org/1999/xlink" x="0px" y="0px"
	 viewBox="0 0 511.999 511.999" style="enable-background:new 0 0 511.999 511.999;" xml:space="preserve">
<path style="fill:#EDEBED;" d="M371.613,0H140.387c-18.243,0-33.032,14.789-33.032,33.032v445.935
	c0,18.243,14.789,33.032,33.032,33.032h231.226c18.243,0,33.032-14.789,33.032-33.032V33.032C404.645,14.789,389.855,0,371.613,0z"
	/>
<path style="fill:#A5CDFF;" d="M363.355,445.935h-214.71c-4.561,0-8.258-3.697-8.258-8.258V74.323c0-4.561,3.697-8.258,8.258-8.258
	h214.71c4.561,0,8.258,3.697,8.258,8.258v363.355C371.613,442.238,367.915,445.935,363.355,445.935z"/>
<path style="fill:#FFE17D;" d="M248.761,175.173l-69.076,21.107c-3.77,1.152-6.179,4.781-5.808,8.706
	c2.101,22.2,13.728,93.767,77.363,138.614c2.817,1.985,6.703,1.985,9.52,0c63.636-44.848,75.263-116.415,77.363-138.614
	c0.371-3.924-2.038-7.554-5.808-8.706l-69.076-21.107C258.521,173.731,253.479,173.731,248.761,175.173z"/>
<path style="fill:#FFFFFF;" d="M250.032,284.161c-2.113,0-4.226-0.806-5.839-2.419l-23.879-23.875
	c-3.226-3.222-3.226-8.452,0-11.677c3.226-3.226,8.452-3.226,11.677,0l18.04,18.036l31.677-31.681c3.226-3.226,8.452-3.226,11.677,0
	c3.226,3.226,3.226,8.452,0,11.677l-37.516,37.52C254.258,283.355,252.145,284.161,250.032,284.161z"/>
<path style="fill:#867E88;" d="M280.773,41.29h-49.548c-4.565,0-8.258-3.698-8.258-8.258s3.694-8.258,8.258-8.258h49.548
	c4.565,0,8.258,3.698,8.258,8.258S285.339,41.29,280.773,41.29z"/>
<g>
	<path style="fill:#DBD9DC;" d="M264.258,491.355h-16.516c-6.839,0-12.387-5.544-12.387-12.387s5.548-12.387,12.387-12.387h16.516
		c6.839,0,12.387,5.544,12.387,12.387S271.096,491.355,264.258,491.355z"/>
	<path style="fill:#DBD9DC;" d="M173.419,495.484c-27.365,0-49.548-22.184-49.548-49.548V4.422
		c-9.832,5.722-16.516,16.415-16.516,28.61v445.935c0,18.243,14.789,33.032,33.032,33.032h231.226
		c12.196,0,22.889-6.684,28.611-16.516L173.419,495.484L173.419,495.484z"/>
</g>
<path style="fill:#8CB4EB;" d="M206.452,429.419c-27.365,0-49.548-22.184-49.548-49.548V66.065h-8.258
	c-4.561,0-8.258,3.697-8.258,8.258v363.355c0,4.561,3.697,8.258,8.258,8.258h214.71c4.561,0,8.258-3.697,8.258-8.258v-8.258H206.452
	V429.419z"/>
<path style="fill:#FFD164;" d="M201.297,189.675l-21.612,6.604c-3.77,1.152-6.179,4.781-5.808,8.706
	c2.101,22.2,13.728,93.767,77.363,138.614c2.817,1.985,6.704,1.985,9.52,0c2.265-1.596,4.318-3.295,6.453-4.956
	C211.668,288.295,202.657,215.945,201.297,189.675z"/>
<g>
</g>
<g>
</g>
<g>
</g>
<g>
</g>
<g>
</g>
<g>
</g>
<g>
</g>
<g>
</g>
<g>
</g>
<g>
</g>
<g>
</g>
<g>
</g>
<g>
</g>
<g>
</g>
<g>
</g>
</svg>
