<?xml version="1.0" encoding="iso-8859-1"?>
<!-- Generator: Adobe Illustrator 21.0.0, SVG Export Plug-In . SVG Version: 6.00 Build 0)  -->
<svg version="1.1" id="Capa_1" xmlns="http://www.w3.org/2000/svg" xmlns:xlink="http://www.w3.org/1999/xlink" x="0px" y="0px"
	 viewBox="0 0 512 512" style="enable-background:new 0 0 512 512;" xml:space="preserve">
<circle style="fill:#A5CDFF;" cx="252.06" cy="215.43" r="215.43"/>
<path style="fill:#8CB4EB;" d="M289.343,393.578c-118.98,0-215.432-96.453-215.432-215.432c0-49.986,17.029-95.999,45.595-132.551
	C69.053,85.024,36.624,146.438,36.624,215.432c0,118.98,96.453,215.432,215.432,215.432c68.994,0,130.366-32.472,169.795-82.924
	C385.3,376.507,339.328,393.578,289.343,393.578z"/>
<path style="fill:#EDEBED;" d="M357.062,89.752c15.698-8.381,30.205-18.668,43.401-30.398c-4.021-3.824-8.165-7.517-12.471-11.024
	c-11.265,9.824-23.538,18.52-36.739,25.752c-11.416-28.11-26.241-50.99-43.413-66.748C290.043,2.575,271.353,0,252.056,0
	s-37.986,2.575-55.783,7.334c-17.172,15.758-31.997,38.638-43.413,66.748c-13.202-7.232-25.475-15.928-36.739-25.752
	c-4.306,3.507-8.451,7.2-12.471,11.024c13.195,11.73,27.703,22.016,43.4,30.398c-11.499,33.865-18.392,73.925-19.173,117.394H36.833
	c-0.104,2.754-0.209,5.507-0.209,8.286s0.105,5.532,0.209,8.286h91.044c0.781,43.469,7.674,83.53,19.173,117.394
	c-15.697,8.381-30.205,18.667-43.4,30.398c4.021,3.824,8.165,7.517,12.471,11.024c11.265-9.824,23.537-18.52,36.739-25.752
	c11.416,28.11,26.241,50.99,43.413,66.748c17.797,4.759,36.486,7.334,55.783,7.334s37.986-2.575,55.783-7.334
	c17.172-15.758,31.997-38.638,43.413-66.748c13.202,7.232,25.475,15.928,36.739,25.752c4.306-3.507,8.451-7.2,12.471-11.024
	c-13.195-11.73-27.703-22.017-43.401-30.398c11.499-33.865,18.392-73.925,19.173-117.394h91.044
	c0.104-2.754,0.209-5.507,0.209-8.286s-0.105-5.532-0.209-8.286h-91.044C375.454,163.677,368.561,123.617,357.062,89.752z
	 M243.77,430.164c-30.704-4.699-57.836-35.227-75.971-80.749c23.375-10.453,49.011-16.703,75.971-17.77L243.77,430.164
	L243.77,430.164z M243.77,315.073c-28.95,1.061-56.501,7.64-81.65,18.729c-10.51-31.834-16.903-69.535-17.675-110.084h99.325
	L243.77,315.073L243.77,315.073z M243.77,207.147h-99.325c0.772-40.548,7.165-78.25,17.676-110.084
	c25.149,11.089,52.7,17.668,81.649,18.729V207.147z M243.77,99.22c-26.96-1.068-52.596-7.317-75.971-17.77
	C185.934,35.927,213.066,5.399,243.77,0.7V99.22z M260.342,0.7c30.704,4.699,57.836,35.227,75.971,80.749
	c-23.375,10.453-49.011,16.703-75.971,17.77V0.7z M260.342,430.164v-98.52c26.96,1.068,52.596,7.317,75.971,17.77
	C318.178,394.937,291.046,425.466,260.342,430.164z M341.992,333.802c-25.149-11.089-52.7-17.668-81.65-18.729v-91.355h99.325
	C358.895,264.267,352.502,301.969,341.992,333.802z M260.342,207.147v-91.355c28.949-1.061,56.5-7.64,81.649-18.729
	c10.511,31.834,16.904,69.535,17.676,110.084H260.342z"/>
<g>
	<path style="fill:#DBD9DC;" d="M378.085,374.439c3.375,2.611,6.693,5.293,9.906,8.096c4.306-3.507,8.451-7.2,12.471-11.024
		c-2.019-1.795-4.126-3.488-6.205-5.214C388.999,369.235,383.601,371.941,378.085,374.439z"/>
	<path style="fill:#DBD9DC;" d="M116.894,49.004c-0.26-0.225-0.536-0.47-0.795-0.696c-4.306,3.507-8.475,7.181-12.496,11.005
		c1.266,1.126,2.553,2.251,3.843,3.349C110.415,58.002,113.587,53.412,116.894,49.004z"/>
	<path style="fill:#DBD9DC;" d="M75.908,207.147H36.786c-0.104,2.754-0.163,5.507-0.163,8.286s0.058,5.532,0.163,8.286h41.999
		C77.611,218.269,76.661,212.74,75.908,207.147z"/>
	<path style="fill:#DBD9DC;" d="M313.47,392.199c-15.303,21.329-33.476,34.957-53.128,37.965v-38.518
		c-5.594-0.753-11.122-1.724-16.572-2.898v41.415c-28.594-4.376-54.063-31.087-72.079-71.514
		c-8.868-5.795-17.327-12.259-25.224-19.262c0.193,0.579,0.387,1.149,0.583,1.724c-15.697,8.381-30.253,18.709-43.449,30.439
		c4.021,3.824,8.192,7.498,12.498,11.005c11.265-9.824,23.558-18.542,36.76-25.774c11.416,28.11,26.241,50.99,43.413,66.748
		c17.797,4.759,36.486,7.334,55.783,7.334s37.937-2.525,55.733-7.284c10.124-9.29,19.453-21.162,27.727-35.015
		C328.295,390.143,320.943,391.366,313.47,392.199z"/>
</g>
<path style="fill:#FFE17D;" d="M378.967,325.208l-79.62,28.953c-3.531,1.284-5.783,4.757-5.426,8.497
	c2.131,22.346,14.544,98.518,85.963,147.882c2.816,1.946,6.676,1.946,9.492,0c71.419-49.364,83.833-125.537,85.963-147.882
	c0.357-3.741-1.895-7.213-5.426-8.497l-79.62-28.953C386.635,323.878,382.625,323.878,378.967,325.208z"/>
<path style="fill:#FFD164;" d="M328.785,343.456l-29.437,10.704c-3.532,1.284-5.784,4.756-5.426,8.497
	c2.131,22.346,14.544,98.519,85.963,147.883c2.815,1.946,6.676,1.946,9.492,0c3.365-2.326,6.555-4.684,9.663-7.12
	C348.076,449.527,333.088,378.349,328.785,343.456z"/>
<path style="fill:#FFFFFF;" d="M377.38,445.883c-2.12,0-4.24-0.809-5.858-2.427l-29.001-29.001c-3.237-3.237-3.237-8.48,0-11.717
	s8.48-3.237,11.717,0l23.142,23.142l39.714-39.714c3.237-3.237,8.48-3.237,11.717,0s3.237,8.48,0,11.717l-45.572,45.572
	C381.62,445.074,379.5,445.883,377.38,445.883z"/>
<g>
</g>
<g>
</g>
<g>
</g>
<g>
</g>
<g>
</g>
<g>
</g>
<g>
</g>
<g>
</g>
<g>
</g>
<g>
</g>
<g>
</g>
<g>
</g>
<g>
</g>
<g>
</g>
<g>
</g>
</svg>
