<?xml version="1.0" encoding="iso-8859-1"?>
<!-- Generator: Adobe Illustrator 21.0.0, SVG Export Plug-In . SVG Version: 6.00 Build 0)  -->
<svg version="1.1" id="Capa_1" xmlns="http://www.w3.org/2000/svg" xmlns:xlink="http://www.w3.org/1999/xlink" x="0px" y="0px"
	 viewBox="0 0 512 512" style="enable-background:new 0 0 512 512;" xml:space="preserve">
<path style="fill:#EDEBED;" d="M363.355,445.935H82.581c-9.122,0-16.516-7.395-16.516-16.516V66.065
	c0-9.122,7.395-16.516,16.516-16.516h280.774c9.122,0,16.516,7.395,16.516,16.516V429.42
	C379.871,438.541,372.476,445.935,363.355,445.935z"/>
<path style="fill:#867E88;" d="M322.065,363.355H214.71c-4.565,0-8.258-3.698-8.258-8.258s3.694-8.258,8.258-8.258h107.355
	c4.565,0,8.258,3.698,8.258,8.258S326.629,363.355,322.065,363.355z"/>
<path style="fill:#B4E6A0;" d="M148.645,371.613c-2.113,0-4.226-0.806-5.839-2.419l-20.645-20.645
	c-3.226-3.226-3.226-8.452,0-11.677s8.452-3.226,11.677,0l14.806,14.806l27.194-27.194c3.226-3.226,8.452-3.226,11.677,0
	c3.226,3.226,3.226,8.452,0,11.677l-33.032,33.032C152.871,370.806,150.758,371.613,148.645,371.613z"/>
<path style="fill:#867E88;" d="M322.065,264.258H214.71c-4.565,0-8.258-3.698-8.258-8.258s3.694-8.258,8.258-8.258h107.355
	c4.565,0,8.258,3.698,8.258,8.258S326.629,264.258,322.065,264.258z"/>
<path style="fill:#B4E6A0;" d="M148.645,272.516c-2.113,0-4.226-0.806-5.839-2.419l-20.645-20.645
	c-3.226-3.226-3.226-8.452,0-11.677c3.226-3.226,8.452-3.226,11.677,0l14.806,14.806l27.194-27.194
	c3.226-3.226,8.452-3.226,11.677,0c3.226,3.226,3.226,8.452,0,11.677l-33.032,33.032
	C152.871,271.71,150.758,272.516,148.645,272.516z"/>
<path style="fill:#C9C6CA;" d="M297.29,33.032h-33.899c-4.013,0-7.274-2.922-8.102-6.849C252.136,11.227,238.863,0,222.968,0
	S193.8,11.227,190.646,26.183c-0.828,3.926-4.089,6.849-8.102,6.849h-33.899c-4.561,0-8.258,3.697-8.258,8.258v16.516
	c0,4.56,3.697,8.258,8.258,8.258H297.29c4.561,0,8.258-3.698,8.258-8.258V41.29C305.548,36.729,301.851,33.032,297.29,33.032z
	 M222.968,41.29c-4.561,0-8.258-3.698-8.258-8.258c0-4.561,3.697-8.258,8.258-8.258s8.258,3.697,8.258,8.258
	S227.529,41.29,222.968,41.29z"/>
<path style="fill:#867E88;" d="M322.065,165.161H214.71c-4.565,0-8.258-3.698-8.258-8.258s3.694-8.258,8.258-8.258h107.355
	c4.565,0,8.258,3.698,8.258,8.258S326.629,165.161,322.065,165.161z"/>
<path style="fill:#B4E6A0;" d="M148.645,173.419c-2.113,0-4.226-0.806-5.839-2.419l-20.645-20.645
	c-3.226-3.226-3.226-8.452,0-11.677c3.226-3.226,8.452-3.226,11.677,0l14.806,14.806l27.194-27.194
	c3.226-3.226,8.452-3.226,11.677,0c3.226,3.226,3.226,8.452,0,11.677L154.484,171C152.871,172.613,150.758,173.419,148.645,173.419z
	"/>
<path style="fill:#DBD9DC;" d="M82.581,379.871V49.548c-9.121,0-16.516,7.394-16.516,16.516v363.355
	c0,9.122,7.395,16.516,16.516,16.516h280.774c9.121,0,16.516-7.395,16.516-16.516H132.129
	C104.764,429.419,82.581,407.236,82.581,379.871z"/>
<path style="fill:#B7B2B8;" d="M297.29,66.065H148.645c-4.561,0-8.258-3.697-8.258-8.258v-8.258h165.161v8.258
	C305.548,62.367,301.851,66.065,297.29,66.065z"/>
<path style="fill:#FFE17D;" d="M355.097,512L355.097,512c-50.169,0-90.839-40.67-90.839-90.839v-49.548
	c0-13.682,11.092-24.774,24.774-24.774h132.129c13.682,0,24.774,11.092,24.774,24.774v49.548
	C445.935,471.33,405.266,512,355.097,512z"/>
<path style="fill:#6F6571;" d="M355.097,239.484c-36.486,0-66.065,29.578-66.065,66.065v41.29h33.032v-41.29
	c0-18.243,14.789-33.032,33.032-33.032c18.243,0,33.032,14.789,33.032,33.032v41.29h33.032v-41.29
	C421.161,269.062,391.583,239.484,355.097,239.484z"/>
<path style="fill:#5D5360;" d="M404.645,317.935v-10.31c0-27.13-20.906-50.789-48.025-51.603
	c-28.06-0.842-51.072,21.654-51.072,49.525v12.387c0,6.841-5.546,12.387-12.387,12.387h-4.129v16.516h33.032v-39.871
	c0-17.252,12.613-32.659,29.788-34.296c19.702-1.879,36.277,13.563,36.277,32.877v41.29h33.032v-16.516h-4.129
	C410.191,330.323,404.645,324.777,404.645,317.935z"/>
<path style="fill:#FFD164;" d="M371.613,503.742c-50.169,0-90.839-40.67-90.839-90.839v-64.547
	c-9.6,3.413-16.516,12.486-16.516,23.257v49.548c0,50.169,40.67,90.839,90.839,90.839c17.922,0,34.642-5.201,48.719-14.16
	C393.81,501.632,382.947,503.742,371.613,503.742z"/>
<path style="fill:#5D5360;" d="M371.613,412.903c0-10.289-9.407-18.379-20.089-16.141c-5.988,1.254-10.982,6.055-12.435,11.997
	c-1.624,6.641,0.786,12.758,5.242,16.585c1.689,1.45,2.508,3.669,2.508,5.895v14.695c0,4.56,3.697,8.258,8.258,8.258
	c4.561,0,8.258-3.698,8.258-8.258V431.23c0-2.312,0.97-4.52,2.701-6.053C369.455,422.167,371.613,417.803,371.613,412.903z"/>
<path style="fill:#4B3F4E;" d="M351.524,413.278c7.524-1.577,14.404,2.086,17.821,7.918c1.432-2.426,2.267-5.264,2.267-8.293
	c0-10.289-9.407-18.38-20.089-16.142c-5.988,1.255-10.982,6.055-12.435,11.997c-1.107,4.528-0.327,8.841,1.687,12.322
	C343.081,417.209,347.067,414.212,351.524,413.278z"/>
<g>
</g>
<g>
</g>
<g>
</g>
<g>
</g>
<g>
</g>
<g>
</g>
<g>
</g>
<g>
</g>
<g>
</g>
<g>
</g>
<g>
</g>
<g>
</g>
<g>
</g>
<g>
</g>
<g>
</g>
</svg>
